<svg width="31" height="28" viewBox="0 0 31 28" fill="none" xmlns="http://www.w3.org/2000/svg">
<path d="M2.49561 8.68099C2.7171 8.68099 2.92952 8.593 3.08613 8.43638C3.24275 8.27977 3.33073 8.06735 3.33073 7.84586V4.50537C3.33093 4.28394 3.41898 4.07164 3.57555 3.91507C3.73213 3.7585 3.94443 3.67045 4.16586 3.67025H9.1766C9.39808 3.67025 9.6105 3.58226 9.76712 3.42564C9.92373 3.26903 10.0117 3.05661 10.0117 2.83512C10.0117 2.61363 9.92373 2.40122 9.76712 2.2446C9.6105 2.08799 9.39808 2 9.1766 2H4.16586C3.50161 2.00073 2.86479 2.26492 2.3951 2.73461C1.92541 3.2043 1.66122 3.84113 1.66049 4.50537V7.84586C1.66049 8.06735 1.74847 8.27977 1.90509 8.43638C2.0617 8.593 2.27412 8.68099 2.49561 8.68099Z" fill="white"/>
<path d="M2.49513 9.51382C2.60481 9.51395 2.71344 9.4924 2.81476 9.45041C2.91609 9.40841 3.00812 9.34681 3.08556 9.26913L4.75581 7.59889C4.90793 7.44138 4.99211 7.23043 4.9902 7.01146C4.9883 6.79249 4.90047 6.58303 4.74563 6.4282C4.59079 6.27336 4.38133 6.18553 4.16237 6.18363C3.9434 6.18172 3.73245 6.2659 3.57494 6.41802L2.49513 7.49775L1.41531 6.41802C1.25781 6.2659 1.04685 6.18172 0.827885 6.18363C0.608919 6.18553 0.399459 6.27336 0.24462 6.4282C0.0897818 6.58303 0.00195214 6.79249 4.9381e-05 7.01146C-0.00185338 7.23043 0.0823223 7.44138 0.234447 7.59889L1.90469 9.26913C1.98213 9.34681 2.07416 9.40841 2.17549 9.45041C2.27682 9.4924 2.38544 9.51395 2.49513 9.51382Z" fill="white"/>
<path d="M27.5161 19.8346C27.2946 19.8346 27.0822 19.9226 26.9256 20.0792C26.769 20.2359 26.681 20.4483 26.681 20.6698L26.681 24.0103C26.6808 24.2317 26.5927 24.444 26.4362 24.6006C26.2796 24.7571 26.0673 24.8452 25.8459 24.8454L20.8351 24.8454C20.6136 24.8454 20.4012 24.9334 20.2446 25.09C20.088 25.2466 20 25.459 20 25.6805C20 25.902 20.088 26.1144 20.2446 26.271C20.4012 26.4276 20.6136 26.5156 20.8351 26.5156L25.8459 26.5156C26.5101 26.5149 27.1469 26.2507 27.6166 25.781C28.0863 25.3113 28.3505 24.6745 28.3512 24.0103L28.3512 20.6698C28.3512 20.4483 28.2632 20.2359 28.1066 20.0792C27.95 19.9226 27.7376 19.8346 27.5161 19.8346Z" fill="white"/>
<path d="M27.5166 19.0018C27.4069 19.0017 27.2983 19.0232 27.197 19.0652C27.0956 19.1072 27.0036 19.1688 26.9262 19.2465L25.2559 20.9167C25.1038 21.0742 25.0196 21.2852 25.0215 21.5042C25.0234 21.7231 25.1112 21.9326 25.2661 22.0874C25.4209 22.2423 25.6304 22.3301 25.8494 22.332C26.0683 22.3339 26.2793 22.2497 26.4368 22.0976L27.5166 21.0179L28.5964 22.0976C28.7539 22.2497 28.9649 22.3339 29.1838 22.332C29.4028 22.3301 29.6123 22.2423 29.7671 22.0874C29.9219 21.9326 30.0098 21.7231 30.0117 21.5042C30.0136 21.2852 29.9294 21.0742 29.7773 20.9167L28.107 19.2465C28.0296 19.1688 27.9376 19.1072 27.8362 19.0652C27.7349 19.0232 27.6263 19.0017 27.5166 19.0018Z" fill="white"/>
<path d="M4.41797 16.0019C4.41797 16.0019 4.41897 16.0049 4.41897 16.0069C4.41897 16.8219 7.10197 18.0059 11.3065 18.0059C15.511 18.0059 18.1775 16.8294 18.193 16.0144V12.5484C16.769 13.5109 14.0275 14.0084 11.3065 14.0084C8.58547 14.0084 5.84097 13.5104 4.41797 12.5469V16.0019Z" fill="white"/>
<path d="M4.41797 20.9985C4.41797 20.9985 4.41897 21.0015 4.41897 21.0035C4.41897 21.8185 7.10197 23.0025 11.3065 23.0025C15.511 23.0025 18.1775 21.826 18.193 21.011V17.545C16.769 18.507 14.0275 19.0045 11.3065 19.0045C8.58547 19.0045 5.84097 18.5065 4.41797 17.543V20.9985Z" fill="white"/>
<path d="M4.41797 25.9946C4.41797 25.9946 4.41897 25.9976 4.41897 25.9996C4.41897 26.8146 7.10197 27.9986 11.3065 27.9986C15.511 27.9986 18.183 26.8196 18.1935 26.0046C18.1935 26.0036 18.1935 26.0031 18.1935 26.0021V22.5411C16.7695 23.5031 14.028 24.0006 11.307 24.0006C8.58597 24.0006 5.84147 23.5026 4.41847 22.5391L4.41797 25.9946Z" fill="white"/>
<path d="M25.5804 8.53516C24.1749 9.48666 21.4839 9.98266 18.7959 9.99516C19.0519 10.2997 19.1944 10.6377 19.1944 11.0097C19.1944 11.0137 19.1929 11.0172 19.1929 11.0212V13.9882C23.1059 13.8987 25.5794 12.7792 25.5794 11.9967C25.5794 11.9957 25.5794 11.9952 25.5794 11.9942V8.53516H25.5804Z" fill="white"/>
<path d="M25.5807 3.53666C24.1567 4.49916 21.4152 4.99666 18.6942 4.99666C15.9732 4.99666 13.2292 4.49866 11.8057 3.53516V6.99366C11.8057 7.32916 12.2982 7.74316 13.0912 8.08216C14.6247 8.20716 16.0662 8.49216 17.1637 8.93516C17.6392 8.97266 18.1517 8.99316 18.6952 8.99316C22.8982 8.99316 25.5807 7.80866 25.5807 6.99316C25.5807 6.99216 25.5807 6.99166 25.5807 6.99066V3.53616V3.53666Z" fill="white"/>
<path d="M25.5804 16.9932C25.5804 16.9932 25.5804 16.9917 25.5804 16.9907V13.5352C24.2444 14.4397 21.7464 14.9317 19.1934 14.9887V16.0002C19.1934 16.0027 19.1949 16.0047 19.1949 16.0077C19.1949 16.0117 19.1934 16.0152 19.1934 16.0192V18.9832C23.0979 18.8937 25.5749 17.7752 25.5804 16.9932Z" fill="white"/>
<path d="M25.5802 1.9995C25.5802 1.9995 25.5812 1.997 25.5812 1.9955C25.5742 1.1805 22.8927 0 18.6937 0C14.4947 0 11.8057 1.184 11.8057 1.999C11.8057 2.814 14.4892 3.998 18.6937 3.998C22.8982 3.998 25.5647 2.8215 25.5802 2.0065V1.9995Z" fill="white"/>
<path d="M4.41945 11.0063C4.41945 11.8213 7.10245 13.0053 11.3069 13.0053C15.5114 13.0053 18.1779 11.8288 18.1934 11.0138V11.0073C18.1934 11.0073 18.1944 11.0048 18.1944 11.0033C18.1874 10.1888 15.5069 9.00831 11.3099 9.00781C11.3084 9.00781 11.3069 9.00881 11.3054 9.00881C11.3039 9.00881 11.3024 9.00781 11.3009 9.00781C7.09995 9.00881 4.41895 10.1918 4.41895 11.0063H4.41945Z" fill="white"/>
</svg>
